<svg id="Layer_1" data-name="Layer 1" xmlns="http://www.w3.org/2000/svg" xmlns:xlink="http://www.w3.org/1999/xlink" viewBox="0 0 305.76 64"><defs><style>.cls-1,.cls-2{fill:none;}.cls-1{clip-rule:evenodd;}.cls-3{clip-path:url(#clip-path);}.cls-4{clip-path:url(#clip-path-2);}.cls-5{clip-path:url(#clip-path-3);}.cls-6{clip-path:url(#clip-path-4);}.cls-7{fill:#fff;}.cls-8{clip-path:url(#clip-path-5);}.cls-9{fill:#321f82;}.cls-10{clip-path:url(#clip-path-6);}</style><clipPath id="clip-path"><path class="cls-1" d="M-111.4,63.15a4.21,4.21,0,0,1-4.2-4.21,4.2,4.2,0,0,1,4.2-4.21,4.2,4.2,0,0,1,4.21,4.21A4.21,4.21,0,0,1-111.4,63.15Zm-18.25-10.36a27.74,27.74,0,0,1-13.74,3.62,27.78,27.78,0,0,1-27.78-27.78A27.78,27.78,0,0,1-143.39.85,27.79,27.79,0,0,1-115.6,28.63a27.65,27.65,0,0,1-3.63,13.74,7.59,7.59,0,0,1,3.63,6.47,7.58,7.58,0,0,1-7.58,7.57A7.58,7.58,0,0,1-129.65,52.79Z"/></clipPath><clipPath id="clip-path-2"><path class="cls-1" d="M-143.39,40.84c24-15.82,7.83-29.08,0-20.41C-151.21,11.76-167.39,25-143.39,40.84Z"/></clipPath><clipPath id="clip-path-3"><path class="cls-1" d="M-81.5,58.9a4.22,4.22,0,0,1,4.21-4.22,4.21,4.21,0,0,1,4.21,4.22,4.21,4.21,0,0,1-4.21,4.21A4.22,4.22,0,0,1-81.5,58.9Zm16-2.53a7.58,7.58,0,0,1-7.58-7.58,7.56,7.56,0,0,1,3.63-6.47,27.65,27.65,0,0,1-3.63-13.74A27.79,27.79,0,0,1-45.29.79,27.79,27.79,0,0,1-17.5,28.58,27.79,27.79,0,0,1-45.29,56.37,27.65,27.65,0,0,1-59,52.74,7.56,7.56,0,0,1-65.5,56.37Z"/></clipPath><clipPath id="clip-path-4"><path class="cls-1" d="M-53,23.29s.56,6.13-2.44,6.13-3.52-2.91-3.79-4.75a52.75,52.75,0,0,1-.28-8.52,3.26,3.26,0,0,1,3-2.88,3.22,3.22,0,0,1,3,3c.19,1.72.34,3.1.34,3.1l2.55,0-.08-3s-.08-3.73,3-3.73c2.18,0,3.25,1.46,3.25,5s.28,8.64-.62,10.2a2.67,2.67,0,0,1-2.57,1.39c-.28,0-2.28-.31-2.66-2.94a12.53,12.53,0,0,1-.29-3Zm17.51-.47c.08-.24-.44-3.35-1.61-3.35-.79,0-1.88,3.17-1.49,3.3S-35.59,23.06-35.51,22.82Zm6,2.35c.41,1.34.55,3.5-2.05,4.17s-2.71-3-3.6-2.75a7.18,7.18,0,0,1-2.11.27c-1.21-.05-2.44-.33-2.61-.06-.63.91-1.47,2.83-2.89,2.54a4,4,0,0,1-1.67-.71c.6-1.37.74-3.5.74-6.56a72.22,72.22,0,0,1,3.47-6.74c1.43-2.34,2.12-2.75,3.35-2.75,1.42,0,3,1.79,4,4.25S-29.93,23.83-29.52,25.17Zm-15.8,5.94c1.69,0,2.52,1.16,2.52,4s.22,6.91-.48,8.16a2.1,2.1,0,0,1-2,1.12,2.41,2.41,0,0,1-2.07-2.35,10.2,10.2,0,0,1-.22-2.39l-1.86,0s.44,4.9-1.9,4.9-2.73-2.33-3-3.8A44.1,44.1,0,0,1-54.49,34a2.56,2.56,0,0,1,2.29-2.3,2.54,2.54,0,0,1,2.32,2.4c.14,1.37.26,2.48.26,2.48l2,0-.07-2.43S-47.76,31.11-45.32,31.11Zm11.56,3.39c.78,2,2.29,5.6,2.61,6.68s.42,2.8-1.6,3.33-2.11-2.41-2.79-2.2a5.3,5.3,0,0,1-1.65.22c-.94,0-1.9-.26-2-.05-.49.73-1.14,2.27-2.25,2A2.88,2.88,0,0,1-42.76,44a15.05,15.05,0,0,0,.57-5.25,58.11,58.11,0,0,1,2.7-5.39c1.11-1.87,1.65-2.2,2.6-2.2C-35.78,31.11-34.54,32.54-33.76,34.5Zm-2.05,4.8a6.61,6.61,0,0,1-2.42,0c-.3-.11.55-2.64,1.16-2.64.92,0,1.32,2.48,1.26,2.68"/></clipPath><clipPath id="clip-path-5"><path class="cls-2" d="M27.48,15.15A9.62,9.62,0,0,1,25.59,15,10.09,10.09,0,0,1,22,13.39a16,16,0,0,1-4-3.87,12.41,12.41,0,0,1-2.56-8,11.79,11.79,0,0,1,3,.8A14.09,14.09,0,0,1,24,6.09,13.4,13.4,0,0,1,27.47,14,8.67,8.67,0,0,1,27.48,15.15Z"/></clipPath><clipPath id="clip-path-6"><path class="cls-1" d="M51.05,22.68c-.5.34-1,.66-1.47,1a13.19,13.19,0,0,0-4.31,5.17A12.49,12.49,0,0,0,44.2,33a15.2,15.2,0,0,0,.38,5.16,13,13,0,0,0,3.88,6.36,14.53,14.53,0,0,0,4.17,2.75l.07,0,0,0c-.18.49-.36,1-.55,1.51a35.56,35.56,0,0,1-5.32,9.31,24.57,24.57,0,0,1-2.59,3,10.6,10.6,0,0,1-2.78,2,7.4,7.4,0,0,1-4.37.62,19,19,0,0,1-4-1.2,15.31,15.31,0,0,0-4.05-1.06,12.11,12.11,0,0,0-4,.23,22,22,0,0,0-3.45,1.12,18,18,0,0,1-3.31,1,6.58,6.58,0,0,1-4.63-.84,13.82,13.82,0,0,1-3.3-2.79A39.09,39.09,0,0,1,1.55,43.8a35.15,35.15,0,0,1-1-5.09,29.81,29.81,0,0,1-.13-5.26,20.12,20.12,0,0,1,2.12-8A16.33,16.33,0,0,1,7.4,19.68a15.25,15.25,0,0,1,6.85-2.87,12.67,12.67,0,0,1,2.68-.17,12.39,12.39,0,0,1,2.89.54c1.1.34,2.18.73,3.27,1.1s2.14.75,3.24,1a3.3,3.3,0,0,0,1.84-.17l4.56-1.55a21.94,21.94,0,0,1,3.73-.95A12.35,12.35,0,0,1,40,16.57a20.18,20.18,0,0,1,3.26.63A14.05,14.05,0,0,1,51,22.62Z"/></clipPath></defs><title>logo-macgarage-light</title><g id="logo-mcgarage"><path class="cls-7" d="M25.12,16.05a11.72,11.72,0,0,1-4-1.75,17.23,17.23,0,0,1-4.23-4.13,13.67,13.67,0,0,1-2.77-8.74l0-.51a2,2,0,0,0,0-.23l0-.69.75.05h.18A13,13,0,0,1,18.91,1a15,15,0,0,1,6,4.12,14.38,14.38,0,0,1,3.72,8.56,9.85,9.85,0,0,1-.05,2l-.08.52-.51.07h0l-.17,0h-.61A10.48,10.48,0,0,1,25.12,16.05Zm2.13-2.29A13.16,13.16,0,0,0,23.85,6,13.62,13.62,0,0,0,18.4,2.26a12.17,12.17,0,0,0-2.93-.78A12.17,12.17,0,0,0,18,9.36a15.73,15.73,0,0,0,3.89,3.8,9.93,9.93,0,0,0,3.54,1.53,7.87,7.87,0,0,0,1.84.18A6.86,6.86,0,0,0,27.25,13.76Z"/><g class="cls-8"><path class="cls-7" d="M24.64-7.73l0,33.32c0,.36.55.58.55.58s25.06,0,25.79,0,.69-.54.69-.54l.07-33.3c0-.64-.7-.64-.7-.64H25.21A.57.57,0,0,0,24.64-7.73ZM36.31,12.91h0v-.43l0,0,0-19.59H50.77L50.83,25H50.2V25l-.47.12V25L36.29,25ZM25.8,25.07l0-32.14,5.35,0a1.63,1.63,0,0,0,1.54,1,1.24,1.24,0,0,0,1.37-1h1.14V25l-1,0s-.07-1-1.45-1-1.52,1-1.52,1Z"/><path class="cls-7" d="M42.48,12.6a.5.5,0,0,0,0-.12.63.63,0,0,0-.32-.54h5.35l0,.66Z"/><polygon class="cls-7" points="48.36 12.6 47.8 12.6 47.78 11.94 48.34 11.94 48.36 12.6"/><path class="cls-7" d="M41.26,12.48a.49.49,0,0,0,0,.12H38.33V23.08H48.81V12.6h-.2l0-.66h.88v11.8H37.67V11.94h3.9A.62.62,0,0,0,41.26,12.48Z"/><path class="cls-7" d="M33.67.19H27.52V4.6h6.15ZM33,3.94H28.18V.85H33Z"/><path class="cls-7" d="M33.67,4.93H27.52V9.34h6.15ZM33,8.69H28.18V5.59H33Z"/><path class="cls-7" d="M33.67,9.63H27.52v4.42h6.15ZM33,13.39H28.18v-3.1H33Z"/><path class="cls-7" d="M33.67,14.42H27.52v4.41h6.15ZM33,18.17H28.18V15.08H33Z"/><path class="cls-7" d="M33.67,19.12H27.52v4.41h6.15ZM33,22.87H28.18V19.78H33Z"/><polygon class="cls-7" points="50.2 25.04 49.73 25.16 49.73 24.98 50.2 24.98 50.2 25.04"/><polygon class="cls-7" points="47.19 5.92 47.62 5.92 50.07 8.86 50.2 24.98 49.73 24.98 49.7 8.98 47.19 5.92"/><path class="cls-7" d="M48.37,12.78V12.6h.25V13A.72.72,0,0,0,48.37,12.78Z"/><polygon class="cls-7" points="44.06 5.24 44.08 5.26 44.04 5.26 44.06 5.24"/><polygon class="cls-7" points="48.28 10.15 44.36 5.92 44.69 5.92 48.49 10.01 48.52 10.04 48.59 11.94 48.34 11.94 48.28 10.15"/><polygon class="cls-7" points="48.36 12.6 48.34 11.94 48.59 11.94 48.61 12.6 48.36 12.6"/><polygon class="cls-7" points="47.69 10.35 47.72 10.39 47.78 11.94 47.53 11.94 47.48 10.48 43.41 5.92 43.74 5.92 47.69 10.35"/><path class="cls-7" d="M47.6,13.07h0l0-.47h.25v.24A.66.66,0,0,0,47.6,13.07Z"/><polygon class="cls-7" points="47.8 12.6 47.55 12.6 47.53 11.94 47.78 11.94 47.8 12.6"/><polygon class="cls-7" points="36.29 12.48 36.31 12.46 36.31 12.91 36.3 12.92 36.29 12.48"/><path class="cls-7" d="M41.28,5.26h-.22l.08-.07Z"/><polygon class="cls-7" points="39.26 9.62 39.25 6.94 40.35 5.92 40.72 5.92 39.5 7.04 39.51 9.72 36.31 12.91 36.31 12.46 39.26 9.62"/><path class="cls-7" d="M41.88,11.86a.61.61,0,0,1,.3.08h-.61A.62.62,0,0,1,41.88,11.86Z"/><path class="cls-7" d="M41.88,13.1a.63.63,0,0,1-.61-.5h1.21A.61.61,0,0,1,41.88,13.1Z"/><path class="cls-7" d="M42.5,12.48a.5.5,0,0,1,0,.12H41.27a.49.49,0,0,1,0-.12.62.62,0,0,1,.31-.54h.61A.63.63,0,0,1,42.5,12.48Z"/><path class="cls-7" d="M26.57,4.81a.51.51,0,1,1-.51.51A.51.51,0,0,1,26.57,4.81Z"/><path class="cls-7" d="M26.57,6.3a.51.51,0,1,1-.51.51A.51.51,0,0,1,26.57,6.3Z"/><path class="cls-7" d="M26.57,13.09a.51.51,0,0,1,.51.51.51.51,0,0,1-1,0A.51.51,0,0,1,26.57,13.09Z"/><path class="cls-7" d="M26.57,14.58a.51.51,0,1,1-.51.51A.51.51,0,0,1,26.57,14.58Z"/><path class="cls-7" d="M26.57,19a.51.51,0,1,1-.51.51A.51.51,0,0,1,26.57,19Z"/><path class="cls-7" d="M48.62,13.06V13a.63.63,0,0,1,.14.4.62.62,0,1,1-1.23,0,.57.57,0,0,1,.07-.29h.22v-.22a.64.64,0,0,1,.33-.1.85.85,0,0,1,.23,0v.29Z"/><path class="cls-7" d="M48.62,13v.1h-.25v-.29A.72.72,0,0,1,48.62,13Z"/><path class="cls-7" d="M47.6,13.07a.66.66,0,0,1,.21-.23v.22Z"/><path class="cls-7" d="M46.83,17.77a3.31,3.31,0,1,0-3.31,3.31A3.31,3.31,0,0,0,46.83,17.77Zm-1,0a2.29,2.29,0,1,1-2.29-2.29A2.3,2.3,0,0,1,45.8,17.78Z"/><polygon class="cls-7" points="37.67 -5.87 49.47 -5.87 49.47 5.92 47.62 5.92 47.16 5.36 46.81 5.46 47.19 5.92 44.69 5.92 44.08 5.26 48.81 5.26 48.81 -5.22 38.33 -5.22 38.33 5.26 41.06 5.26 40.35 5.92 37.67 5.92 37.67 -5.87"/><path class="cls-7" d="M41.49,5.3a.46.46,0,0,0,.21,0H44l-.15.15.47.51h-.62l-.42-.47-.19.16.28.31H40.72l.67-.63Z"/><polygon class="cls-7" points="47.16 5.36 47.62 5.92 47.19 5.92 46.81 5.46 47.16 5.36"/><polygon class="cls-7" points="43.89 5.41 44.04 5.26 44.08 5.26 44.69 5.92 44.36 5.92 43.89 5.41"/><polygon class="cls-7" points="43.32 5.45 43.74 5.92 43.41 5.92 43.13 5.61 43.32 5.45"/><path class="cls-7" d="M41.28,5.26l.11,0-.67.63h-.37l.71-.66Z"/><path class="cls-7" d="M41.6,5.1l-.17-.18-.29.27a.62.62,0,1,1,1-.51.61.61,0,0,1-.41.58h-.28Z"/><path class="cls-7" d="M41.43,4.92l.17.18-.18.16h-.14l-.14-.07Z"/><path class="cls-7" d="M41.7,5.26a.46.46,0,0,1-.21,0h-.1l0,0Z"/><path class="cls-7" d="M41.39,5.29l-.11,0h.14Z"/><path class="cls-7" d="M43.52,3A3.31,3.31,0,0,0,46.83-.3a3.31,3.31,0,0,0-3.31-3.31A3.31,3.31,0,0,0,40.21-.3,3.31,3.31,0,0,0,43.52,3Zm0-.95A2.28,2.28,0,0,1,41.22-.22a2.28,2.28,0,0,1,2.29-2.29A2.29,2.29,0,0,1,45.8-.22,2.29,2.29,0,0,1,43.51,2.06Z"/><path class="cls-9" d="M49.66,26.81l-33.33,0c-.35,0-.57.56-.57.56s0,25.05,0,25.78.55.7.55.7l33.3.06c.63,0,.64-.7.64-.7V27.39A.58.58,0,0,0,49.66,26.81ZM29,38.48h0l.43,0,0,0,19.59,0V52.94L17,53v-.63h-.06l-.13-.46h.18l-.05-13.45ZM16.86,28,49,28v5.35a1.64,1.64,0,0,0-1,1.55,1.23,1.23,0,0,0,1,1.36v1.14H16.89l0-1s1-.08,1-1.46-1-1.51-1-1.51Z"/><path class="cls-9" d="M29.33,44.66h.12a.62.62,0,0,0,.53-.31V49.7l-.65,0Z"/><polygon class="cls-9" points="29.32 50.53 29.32 49.97 29.98 49.95 29.98 50.51 29.32 50.53"/><path class="cls-9" d="M29.45,43.43h-.12V40.5H18.85V51H29.33v-.2l.65,0v.88H18.19V39.84H30v3.9A.62.62,0,0,0,29.45,43.43Z"/><path class="cls-9" d="M46.52,35.84V29.7H42.11v6.14Zm-3.75-.66V30.36h3.09v4.82Z"/><path class="cls-9" d="M41.74,35.84V29.7H37.33v6.14ZM38,35.18V30.36h3.1v4.82Z"/><path class="cls-9" d="M37,35.84V29.7H32.58v6.14Zm-3.75-.66V30.36h3.1v4.82Z"/><path class="cls-9" d="M32.29,35.84V29.7H27.88v6.14Zm-3.75-.66V30.36h3.09v4.82Z"/><path class="cls-9" d="M27.51,35.84V29.7H23.1v6.14Zm-3.76-.66V30.36h3.1v4.82Z"/><path class="cls-9" d="M22.8,35.84V29.7H18.39v6.14Zm-3.75-.66V30.36h3.1v4.82Z"/><polygon class="cls-9" points="16.89 52.37 16.76 51.91 16.95 51.91 16.95 52.37 16.89 52.37"/><polygon class="cls-9" points="36 49.37 36 49.79 33.07 52.25 16.95 52.37 16.95 51.91 32.94 51.88 36 49.37"/><path class="cls-9" d="M29.14,50.54h.19v.25H29A.64.64,0,0,0,29.14,50.54Z"/><polygon class="cls-9" points="36.69 46.24 36.66 46.26 36.66 46.21 36.69 46.24"/><polygon class="cls-9" points="31.78 50.46 36 46.53 36 46.87 31.92 50.66 31.88 50.7 29.98 50.76 29.98 50.51 31.78 50.46"/><polygon class="cls-9" points="29.32 50.53 29.98 50.51 29.98 50.76 29.32 50.78 29.32 50.53"/><polygon class="cls-9" points="31.57 49.87 31.54 49.89 29.98 49.95 29.98 49.7 31.44 49.65 36 45.58 36 45.91 31.57 49.87"/><path class="cls-9" d="M28.86,49.78v0l.48,0V50h-.25A.47.47,0,0,0,28.86,49.78Z"/><polygon class="cls-9" points="29.32 49.97 29.32 49.73 29.98 49.7 29.98 49.95 29.32 49.97"/><polygon class="cls-9" points="29.44 38.46 29.47 38.48 29.02 38.48 29.01 38.48 29.44 38.46"/><path class="cls-9" d="M36.66,43.46v-.23l.08.08A.44.44,0,0,0,36.66,43.46Z"/><polygon class="cls-9" points="32.3 41.43 34.99 41.42 36 42.52 36 42.89 34.88 41.67 32.2 41.68 29.02 38.48 29.47 38.48 32.3 41.43"/><path class="cls-9" d="M30.07,44.05a.66.66,0,0,1-.09.31v-.62A.66.66,0,0,1,30.07,44.05Z"/><path class="cls-9" d="M28.83,44.05a.62.62,0,0,1,.5-.61v1.22A.62.62,0,0,1,28.83,44.05Z"/><path class="cls-9" d="M29.45,44.67h-.12V43.44h.12a.62.62,0,0,1,.53.31v.62A.62.62,0,0,1,29.45,44.67Z"/><path class="cls-9" d="M37.12,28.74a.51.51,0,1,1-.51-.51A.51.51,0,0,1,37.12,28.74Z"/><path class="cls-9" d="M35.63,28.74a.51.51,0,0,1-.51.51.51.51,0,0,1,0-1A.51.51,0,0,1,35.63,28.74Z"/><path class="cls-9" d="M28.84,28.74a.51.51,0,1,1-.51-.51A.51.51,0,0,1,28.84,28.74Z"/><path class="cls-9" d="M27.34,28.74a.51.51,0,1,1-.5-.51A.5.5,0,0,1,27.34,28.74Z"/><path class="cls-9" d="M23,28.74a.51.51,0,0,1-.51.51.51.51,0,0,1,0-1A.51.51,0,0,1,23,28.74Z"/><path class="cls-9" d="M28.86,50.79H29a.61.61,0,0,1-1-.47.61.61,0,0,1,.91-.54V50h.22a.57.57,0,0,1,.1.34.54.54,0,0,1,0,.22h-.28Z"/><path class="cls-9" d="M29,50.79h-.1v-.24h.28A.64.64,0,0,1,29,50.79Z"/><path class="cls-9" d="M28.86,49.78a.47.47,0,0,1,.22.2h-.22Z"/><path class="cls-9" d="M24.16,49a3.31,3.31,0,1,0-3.31-3.31A3.31,3.31,0,0,0,24.16,49Zm0-1a2.29,2.29,0,1,1,2.29-2.29A2.29,2.29,0,0,1,24.15,48Z"/><polygon class="cls-9" points="47.8 39.84 47.8 51.64 36 51.64 36 49.79 36.56 49.33 36.47 48.99 36 49.37 36 46.87 36.66 46.26 36.66 50.98 47.14 50.98 47.14 40.5 36.66 40.5 36.66 43.23 36 42.52 36 39.84 47.8 39.84"/><path class="cls-9" d="M36.62,43.67a.78.78,0,0,0,0,.21v2.33l-.15-.15-.51.47v-.62l.48-.42-.16-.18-.32.27V42.89l.63.68S36.62,43.63,36.62,43.67Z"/><polygon class="cls-9" points="36.56 49.33 36 49.79 36 49.37 36.47 48.99 36.56 49.33"/><polygon class="cls-9" points="36.51 46.06 36.66 46.21 36.66 46.26 36 46.87 36 46.53 36.51 46.06"/><polygon class="cls-9" points="36.48 45.49 36 45.91 36 45.58 36.32 45.31 36.48 45.49"/><path class="cls-9" d="M36.66,43.46l0,.11L36,42.89v-.37l.66.71Z"/><path class="cls-9" d="M36.83,43.77l.18-.16-.27-.3a.6.6,0,0,1,.5-.26.62.62,0,1,1-.58.83V43.6Z"/><path class="cls-9" d="M37,43.61l-.18.16-.17-.17v-.14a.44.44,0,0,1,.08-.15Z"/><path class="cls-9" d="M36.66,43.88a.78.78,0,0,1,0-.21s0-.07,0-.1l0,0Z"/><path class="cls-9" d="M36.63,43.57l0-.11v.14Z"/><path class="cls-9" d="M38.91,45.69a3.31,3.31,0,1,0,3.31-3.31A3.31,3.31,0,0,0,38.91,45.69Zm1,0A2.29,2.29,0,1,1,42.15,48,2.28,2.28,0,0,1,39.86,45.68Z"/><path class="cls-7" d="M-6.19,48.09h22.1L16,27.94l7.67-.15V-1.78c0-2.57-1.25-3.67-2.14-4l-.2,0-8.06-.08L11.13-2.43l-15.54.07c-1,0-1.3.25-1.39.34l-.21.2,0,.14ZM.7,47.3l-6.13,0,.07-48.85L11.2-1.83l2.43-3.34,7.68.07,1.44,1.37V2.05L23,27.12l-8,.38.23,19.75-8.37,0C4.63,47.72,1.36,48.18.7,47.3Z"/><path class="cls-7" d="M-5.36-1.52,11.2-1.83l2.43-3.34,7.68.07,1.44,1.37V2.05L23,27.12l-8,.38.23,19.75-8.37,0C8.06,47,9,46.81,9,46.81a.31.31,0,0,0,0-.09h2.36v.34h.23v-.34h3l.08-20H16v-.17l6.35-.12V16.18h0V26.74h.3V15h-.3V-1.93a2.55,2.55,0,0,0-1.13-2.48L14-4.48l-1.74,2.8v-.07l-1.37.31v.38L-1.24-1v-.14l-1.37,0V-1H-4.68l-.14,47.71H.58a2.35,2.35,0,0,0,0,.26.56.56,0,0,0,.11.32l-6.13,0Z"/><path class="cls-7" d="M8,19.18v.55a7.77,7.77,0,0,1-3.35.76H4.47A7.51,7.51,0,0,1,1.73,20V19.3A7,7,0,0,0,8,19.18Z"/><path class="cls-7" d="M-2.63,12.27a7.77,7.77,0,0,0,4,6.85h-1v.18a8.45,8.45,0,0,1-3.13-5.71L-2.6-1h1.36l-.1,8.93A7.94,7.94,0,0,0-2.63,12.27Z"/><path class="cls-7" d="M9.32,18.89H8.5a7.76,7.76,0,0,0,3.62-6.62,8,8,0,0,0-1.18-4.18l0-9.15h1l.38-.61.05,15.19A9.16,9.16,0,0,1,9.32,18.89Z"/><path class="cls-7" d="M1.33,44.93l7,0c.78.29.73,1.49.69,1.84H.58C.56,45,1.33,44.93,1.33,44.93Z"/><path class="cls-7" d="M.7,47.3l6.16,0C4.63,47.72,1.36,48.18.7,47.3Z"/><path class="cls-7" d="M.58,46.72H9a.31.31,0,0,1,0,.09s-.9.23-2.1.47L.7,47.3A.56.56,0,0,1,.59,47,2.35,2.35,0,0,1,.58,46.72Z"/><path class="cls-7" d="M1.73,22.07H1.22v1.37h.51v.63H1.2v1.37h.53v1H8v-1h.51V24.08H8v-.63h.51V22.08H8V19.73a6.75,6.75,0,0,0,1.32-.84h0v8.89h-9V19.3A6.12,6.12,0,0,0,1.73,20Z"/><path class="cls-7" d="M8,19.18a5,5,0,0,0,.5-.29h.82A6.75,6.75,0,0,1,8,19.73Z"/><path class="cls-7" d="M1.38,19.12l.35.18V20A6.12,6.12,0,0,1,.36,19.3v-.18Z"/><polygon class="cls-7" points="8 23.45 1.73 23.44 1.73 22.07 8 22.08 8 23.45"/><rect class="cls-7" x="7.57" y="22.51" width="1.37" height="0.51" transform="translate(-14.53 30.98) rotate(-89.89)"/><polygon class="cls-7" points="1.22 23.44 1.22 22.07 1.73 22.07 1.73 23.44 1.22 23.44"/><polygon class="cls-7" points="8 25.45 1.73 25.43 1.73 24.07 8 24.08 8 25.45"/><polygon class="cls-7" points="1.2 25.43 1.2 24.06 1.73 24.07 1.73 25.43 1.2 25.43"/><rect class="cls-7" x="7.57" y="24.51" width="1.37" height="0.51" transform="translate(-16.53 32.97) rotate(-89.89)"/><path class="cls-7" d="M4.75,19.06a6.23,6.23,0,0,0,4.19-1.64,6.11,6.11,0,0,1-4.32,1.7A5.44,5.44,0,0,1-.82,15.68,6.39,6.39,0,0,0,4.75,19.06Z"/><path class="cls-7" d="M4.75,5.47a6.51,6.51,0,0,0-6.12,4.64l0-2.19A7.29,7.29,0,0,1,4.75,4.55a7.3,7.3,0,0,1,6.19,3.54V10.4A6.53,6.53,0,0,0,4.75,5.47Z"/><path class="cls-7" d="M8,19.18a7,7,0,0,1-6.27.12v-.18H1.38a7.77,7.77,0,0,1-4-6.85A7.94,7.94,0,0,1-1.34,7.92l0,2.19a7.29,7.29,0,0,0-.34,2.16,7,7,0,0,0,.89,3.41,5.44,5.44,0,0,0,5.44,3.44,6.11,6.11,0,0,0,4.32-1.7,6.91,6.91,0,0,0,2.26-5.15A7.15,7.15,0,0,0,11,10.4V8.09a8,8,0,0,1,1.18,4.18A7.76,7.76,0,0,1,8.5,18.89H8Z"/><path class="cls-7" d="M8,18.89h.5a5,5,0,0,1-.5.29Z"/><path class="cls-7" d="M1.73,19.3l-.35-.18h.35Z"/><path class="cls-7" d="M3.94,9.63,3.07,6.82a4,4,0,0,1,3.34-.1L5.48,9.65Z"/><path class="cls-7" d="M5.54,15l.87,2.81a4,4,0,0,1-3.34.1L4,15Z"/><path class="cls-7" d="M10,10.64A4,4,0,0,1,10.15,14l-2.93-.92V11.51Z"/><path class="cls-7" d="M2.13,13.11-.68,14a4,4,0,0,1-.1-3.34l2.93.92Z"/><path class="cls-7" d="M4.69,10.32a2.06,2.06,0,1,1-2.05,2.06A2.06,2.06,0,0,1,4.69,10.32Z"/><path class="cls-7" d="M20.85,4.26l-1-1,.13-.18h0l1.14,1.09,0,10.8h-.23Z"/><path class="cls-7" d="M17.94,4.5l.25-.07,2.1,2.13,0,8.4h-.23l0-8.31Z"/><path class="cls-7" d="M17.08,4.6h.31L19.64,6.9l0,8.06h-.23l0-8Z"/><path class="cls-7" d="M19.07,7.13V15h-.23V7.22L16.09,4.44a2.07,2.07,0,0,0,.43.1Z"/><path class="cls-7" d="M13.74,17.58c0-.47.63-.5.88-.49V18C14.33,18.06,13.72,18,13.74,17.58Z"/><path class="cls-7" d="M13.74,19.45c0-.48.63-.5.88-.49v.95C14.33,19.92,13.72,19.91,13.74,19.45Z"/><path class="cls-7" d="M13.74,21.26c0-.48.63-.5.88-.49v.94C14.33,21.73,13.72,21.71,13.74,21.26Z"/><path class="cls-7" d="M13.75,23.14h.17v-.23h-.14c.15-.3.63-.31.84-.3v.94C14.34,23.57,13.78,23.55,13.75,23.14Z"/><path class="cls-7" d="M13.76,25h.1v-.22h-.09c.11-.35.63-.38.85-.37v.95C14.36,25.41,13.84,25.38,13.76,25Z"/><path class="cls-7" d="M13.75,23.14H10.84V31.4h0V31h-.22v-8h3.16a.49.49,0,0,0,0,.19A.08.08,0,0,0,13.75,23.14Z"/><path class="cls-7" d="M13.92,23.14h-.17a.08.08,0,0,1,0,0,.49.49,0,0,1,0-.19h.14Z"/><path class="cls-7" d="M11.31,24.81h2.46a.24.24,0,0,0,0,.12.3.3,0,0,0,0,.1H11.54l0,21.69h-.23l0-21.8Z"/><rect class="cls-7" x="11.33" y="46.72" width="0.23" height="0.34"/><path class="cls-7" d="M13.86,25h-.1a.3.3,0,0,1,0-.1.24.24,0,0,1,0-.12h.09Z"/><path class="cls-7" d="M10.62,31.4V31H-1.66V43.64h12.5V31.4Zm-.24,11.79H-1.21V31.41h4.4v-.24h.29v.24h.88v-.24h.28v.24h.94v-.24h.29v.24h4.51Z"/><rect class="cls-7" x="10.62" y="30.96" width="0.22" height="0.45"/><path class="cls-7" d="M19.79,3.23l.15-.16a3.31,3.31,0,0,0,.55-1.83,3.37,3.37,0,1,0-4.4,3.2L15.68,4l.17-.16.67.67a2.6,2.6,0,0,0,.56.06l-.26-.27L17,4.17l.4.42a4.85,4.85,0,0,0,.55-.09l-.32-.32L17.78,4l.41.41a3.31,3.31,0,0,0,1.62-1.18Zm-.35-1.92A2.33,2.33,0,1,1,17.11-1,2.33,2.33,0,0,1,19.44,1.31Z"/><path class="cls-7" d="M19.79,3.23l.15-.16-.13.18Z"/><path class="cls-7" d="M17.62,4.18,17.78,4l.41.41-.25.07Z"/><path class="cls-7" d="M17.08,4.6l-.26-.27L17,4.17l.4.42h-.31Z"/><path class="cls-7" d="M15.85,3.87l.67.67a2.07,2.07,0,0,1-.43-.1L15.68,4Z"/><path class="cls-7" d="M14.62,25.39l.16,0,0-.92h-.11v-.89h.16l0-.93h-.11v-.9h.16l0-.93h-.11v-.86l.16,0,0-.92h-.11V18l.16,0,0-.92h-.11V15h4.22v.19h.23V15h.38v0h.23v0h.41v.15h.23V15h.57v.19h.23V15H22.3v1.22H16V26.57l-1.32,0v.14h0Z"/><polygon class="cls-7" points="22.6 14.96 22.6 26.74 22.3 26.74 22.3 16.18 22.3 16.18 22.3 14.96 22.6 14.96"/><polygon class="cls-7" points="15.95 26.57 15.95 26.74 14.63 26.74 14.63 26.6 15.95 26.57"/><rect class="cls-7" x="20.89" y="14.96" width="0.23" height="0.19"/><rect class="cls-7" x="20.09" y="14.96" width="0.23" height="0.15"/><rect class="cls-7" x="19.45" y="14.96" width="0.23" height="0.04" transform="translate(-0.1 0.13) rotate(-0.37)"/><rect class="cls-7" x="18.84" y="14.96" width="0.23" height="0.19"/><path class="cls-7" d="M14.78,18l-.16,0v-.95h.11Z"/><path class="cls-7" d="M14.78,19.89l-.16,0V19h.11Z"/><path class="cls-7" d="M14.78,21.7h-.16v-.94h.11Z"/><path class="cls-7" d="M14.78,23.54h-.16v-.94h.11Z"/><path class="cls-7" d="M14.78,25.37l-.16,0v-.95h.11Z"/><path class="cls-7" d="M3.19,32.91v-.23H0V41.8H9.25V32.68H5.87v.23H5.58v-.23H4.64v.23H4.36v-.23H3.48v.23Zm-1.8,1.14H7.88v6.38H1.39Z"/><rect class="cls-7" x="5.58" y="31.41" width="0.29" height="1.27"/><rect class="cls-7" x="5.58" y="31.17" width="0.29" height="0.24"/><rect class="cls-7" x="5.58" y="32.68" width="0.29" height="0.23"/><rect class="cls-7" x="3.19" y="31.41" width="0.29" height="1.27"/><rect class="cls-7" x="3.19" y="31.17" width="0.29" height="0.24"/><rect class="cls-7" x="3.19" y="32.68" width="0.29" height="0.23"/><rect class="cls-7" x="4.36" y="31.41" width="0.28" height="1.27"/><rect class="cls-7" x="4.36" y="31.17" width="0.28" height="0.24"/><rect class="cls-7" x="4.36" y="32.68" width="0.28" height="0.23"/><path class="cls-7" d="M17.66,7.33a.49.49,0,1,1-.49.49A.49.49,0,0,1,17.66,7.33Z"/><path class="cls-7" d="M17.66,11.54a.5.5,0,1,1-.49.5A.5.5,0,0,1,17.66,11.54Z"/><path class="cls-7" d="M17.66,13.18a.49.49,0,1,1-.49.49A.49.49,0,0,1,17.66,13.18Z"/><path class="cls-7" d="M13,36.69a.5.5,0,1,1,.49-.5A.49.49,0,0,1,13,36.69Z"/><path class="cls-7" d="M13,37.33a.5.5,0,1,1-.49.5A.49.49,0,0,1,13,37.33Z"/></g><g class="cls-10"><path class="cls-7" d="M28.31,12l0,32.65c0,.35.55.57.55.57l25.26,0c.71,0,.68-.53.68-.53L54.9,12c0-.62-.68-.62-.68-.62H28.88A.56.56,0,0,0,28.31,12ZM39.75,32.2h0v-.43l0,0,0-19.2H53.91L54,44h-.61v.06l-.46.12V44l-13.17.06ZM29.46,44.11V12.62h5.24a1.64,1.64,0,0,0,1.52.94,1.2,1.2,0,0,0,1.33-.94h1.12V44.08l-1,0s-.08-1-1.43-1-1.48,1-1.48,1Z"/><path class="cls-7" d="M45.8,31.89a.45.45,0,0,0,0-.12.61.61,0,0,0-.3-.52h5.23l0,.64Z"/><polygon class="cls-7" points="51.56 31.89 51.01 31.89 50.99 31.25 51.53 31.25 51.56 31.89"/><path class="cls-7" d="M44.6,31.77a.45.45,0,0,0,0,.12H41.73V42.16H52V31.89H51.8l0-.64h.86V42.81H41.08V31.25H44.9A.61.61,0,0,0,44.6,31.77Z"/><path class="cls-7" d="M37.16,15.05h-6v4.32h6Zm-.64,3.67H31.79v-3h4.73Z"/><path class="cls-7" d="M37.16,19.73h-6v4.33h6Zm-.64,3.68H31.79v-3h4.73Z"/><path class="cls-7" d="M37.16,24.38h-6V28.7h6Zm-.64,3.68H31.79V25h4.73Z"/><path class="cls-7" d="M37.16,29h-6v4.32h6Zm-.64,3.67H31.79v-3h4.73Z"/><path class="cls-7" d="M37.16,33.67h-6V38h6Zm-.64,3.68H31.79v-3h4.73Z"/><path class="cls-7" d="M37.16,38.28h-6V42.6h6ZM36.52,42H31.79v-3h4.73Z"/><polygon class="cls-7" points="53.36 44.08 52.9 44.2 52.9 44.02 53.36 44.02 53.36 44.08"/><polygon class="cls-7" points="50.42 25.35 50.83 25.35 53.24 28.23 53.36 44.02 52.9 44.02 52.87 28.35 50.42 25.35"/><path class="cls-7" d="M51.56,32.07v-.18h.24v.36A.64.64,0,0,0,51.56,32.07Z"/><polygon class="cls-7" points="47.34 24.68 47.37 24.7 47.32 24.7 47.34 24.68"/><polygon class="cls-7" points="51.48 29.49 47.64 25.35 47.96 25.35 51.69 29.36 51.72 29.39 51.78 31.25 51.53 31.25 51.48 29.49"/><polygon class="cls-7" points="51.56 31.89 51.53 31.25 51.78 31.25 51.8 31.89 51.56 31.89"/><polygon class="cls-7" points="50.9 29.69 50.93 29.73 50.99 31.25 50.74 31.25 50.69 29.82 46.71 25.35 47.03 25.35 50.9 29.69"/><path class="cls-7" d="M50.81,32.35h0v-.47H51v.24A.63.63,0,0,0,50.81,32.35Z"/><polygon class="cls-7" points="51.01 31.89 50.77 31.89 50.74 31.25 50.99 31.25 51.01 31.89"/><polygon class="cls-7" points="39.73 31.78 39.75 31.76 39.75 32.2 39.74 32.2 39.73 31.78"/><path class="cls-7" d="M44.62,24.7H44.4l.08-.07Z"/><polygon class="cls-7" points="42.64 28.97 42.63 26.35 43.71 25.35 44.07 25.35 42.88 26.45 42.88 29.08 39.75 32.2 39.75 31.76 42.64 28.97"/><path class="cls-7" d="M45.2,31.17a.62.62,0,0,1,.31.08H44.9A.64.64,0,0,1,45.2,31.17Z"/><path class="cls-7" d="M45.2,32.38a.61.61,0,0,1-.59-.49H45.8A.61.61,0,0,1,45.2,32.38Z"/><path class="cls-7" d="M45.81,31.77a.45.45,0,0,1,0,.12H44.61a.45.45,0,0,1,0-.12.61.61,0,0,1,.3-.52h.61A.61.61,0,0,1,45.81,31.77Z"/><path class="cls-7" d="M30.21,24.26a.5.5,0,0,1,.5.5.51.51,0,0,1-.5.5.5.5,0,0,1-.5-.5A.5.5,0,0,1,30.21,24.26Z"/><path class="cls-7" d="M30.21,25.72a.5.5,0,0,1,0,1,.5.5,0,0,1,0-1Z"/><path class="cls-7" d="M30.21,32.37a.5.5,0,0,1,.5.5.51.51,0,0,1-.5.5.5.5,0,0,1-.5-.5A.5.5,0,0,1,30.21,32.37Z"/><path class="cls-7" d="M30.21,33.83a.51.51,0,0,1,.5.5.5.5,0,0,1-.5.5.5.5,0,0,1-.5-.5A.5.5,0,0,1,30.21,33.83Z"/><path class="cls-7" d="M30.21,38.11a.51.51,0,0,1,.5.5.5.5,0,0,1-.5.5.5.5,0,0,1-.5-.5A.5.5,0,0,1,30.21,38.11Z"/><path class="cls-7" d="M51.81,32.35v-.1a.6.6,0,1,1-1.07.39.69.69,0,0,1,.07-.29H51v-.22a.59.59,0,0,1,.33-.1.78.78,0,0,1,.21,0v.28Z"/><path class="cls-7" d="M51.81,32.25v.1h-.24v-.28A.64.64,0,0,1,51.81,32.25Z"/><path class="cls-7" d="M50.81,32.35a.63.63,0,0,1,.21-.22v.22Z"/><path class="cls-7" d="M50.05,37a3.24,3.24,0,1,0-3.24,3.24A3.25,3.25,0,0,0,50.05,37Zm-1,0a2.24,2.24,0,1,1-2.24-2.25A2.24,2.24,0,0,1,49,37Z"/><polygon class="cls-7" points="41.08 13.79 52.64 13.79 52.64 25.35 50.83 25.35 50.38 24.8 50.04 24.9 50.42 25.35 47.96 25.35 47.37 24.7 51.99 24.7 51.99 14.44 41.73 14.44 41.73 24.7 44.4 24.7 43.71 25.35 41.08 25.35 41.08 13.79"/><path class="cls-7" d="M44.83,24.74a.45.45,0,0,0,.2,0h2.29l-.15.15.47.5H47l-.41-.47-.18.16.27.31H44.07l.66-.62Z"/><polygon class="cls-7" points="50.38 24.8 50.83 25.35 50.42 25.35 50.04 24.9 50.38 24.8"/><polygon class="cls-7" points="47.17 24.85 47.32 24.7 47.37 24.7 47.96 25.35 47.64 25.35 47.17 24.85"/><polygon class="cls-7" points="46.62 24.88 47.03 25.35 46.71 25.35 46.44 25.04 46.62 24.88"/><path class="cls-7" d="M44.62,24.7a.23.23,0,0,0,.11,0l-.66.62h-.36l.69-.65Z"/><path class="cls-7" d="M44.93,24.54l-.16-.17-.29.26a.62.62,0,0,1-.26-.49.61.61,0,1,1,1.21,0,.58.58,0,0,1-.4.56h-.27Z"/><path class="cls-7" d="M44.77,24.37l.16.17-.17.16h-.14l-.14-.07Z"/><path class="cls-7" d="M45,24.7a.45.45,0,0,1-.2,0h-.1l0,0Z"/><path class="cls-7" d="M44.73,24.73a.23.23,0,0,1-.11,0h.14Z"/><path class="cls-7" d="M46.81,22.5a3.25,3.25,0,1,0-3.24-3.24A3.24,3.24,0,0,0,46.81,22.5Zm0-.93A2.24,2.24,0,1,1,49,19.33,2.24,2.24,0,0,1,46.8,21.57Z"/><path class="cls-7" d="M21.37,74.79l35.62,0c.38,0,.62-.6.62-.6s0-26.78,0-27.55-.58-.75-.58-.75l-35.59-.06c-.68,0-.69.74-.69.74V74.17A.62.62,0,0,0,21.37,74.79ZM43.44,62.31h0l-.47,0,0,0L22,64V46.87l34.32-.07v.67h.06l.13.5h-.19l.06,16.08Zm13,11.24-34.35,0,0-5.72a1.74,1.74,0,0,0,1-1.65,1.33,1.33,0,0,0-1-1.46V63.48H56.4l0,1.11s-1.08.08-1.06,1.55,1.09,1.62,1.09,1.62Z"/><path class="cls-7" d="M43.11,55.72l-.14,0a.67.67,0,0,0-.57.34V50.33l.71,0Z"/><polygon class="cls-7" points="43.11 49.44 43.11 50.03 42.41 50.06 42.41 49.46 43.11 49.44"/><path class="cls-7" d="M43,57l.14,0v3.15h11.2V49H43.11v.21l-.71,0v-.93H55v12.6H42.4V56.69A.67.67,0,0,0,43,57Z"/><polygon class="cls-7" points="56.4 47.47 56.53 47.97 56.34 47.97 56.34 47.47 56.4 47.47"/><polygon class="cls-7" points="35.97 50.68 35.97 50.23 39.11 47.6 56.34 47.47 56.34 47.97 39.24 48 35.97 50.68"/><path class="cls-7" d="M43.3,49.43h-.19v-.27h.38A.66.66,0,0,0,43.3,49.43Z"/><polygon class="cls-7" points="35.24 54.03 35.26 54.01 35.26 54.05 35.24 54.03"/><polygon class="cls-7" points="40.49 49.52 35.97 53.71 35.97 53.35 40.34 49.3 40.37 49.26 42.41 49.2 42.41 49.46 40.49 49.52"/><polygon class="cls-7" points="43.11 49.44 42.41 49.46 42.41 49.2 43.11 49.17 43.11 49.44"/><polygon class="cls-7" points="40.71 50.15 40.74 50.12 42.41 50.06 42.41 50.33 40.84 50.38 35.97 54.73 35.97 54.37 40.71 50.15"/><path class="cls-7" d="M43.61,50.25v0l-.5,0V50h.25A.76.76,0,0,0,43.61,50.25Z"/><polygon class="cls-7" points="43.11 50.03 43.11 50.3 42.41 50.33 42.41 50.06 43.11 50.03"/><polygon class="cls-7" points="42.98 62.34 42.95 62.31 43.44 62.31 43.45 62.32 42.98 62.34"/><path class="cls-7" d="M35.26,57v.24l-.07-.09A.52.52,0,0,0,35.26,57Z"/><polygon class="cls-7" points="39.92 59.16 37.05 59.17 35.97 58 35.97 57.61 37.17 58.91 40.03 58.9 43.44 62.31 42.95 62.31 39.92 59.16"/><path class="cls-7" d="M42.31,56.37A.7.7,0,0,1,42.4,56v.65A.66.66,0,0,1,42.31,56.37Z"/><path class="cls-7" d="M43.64,56.37a.66.66,0,0,1-.53.64V55.72A.66.66,0,0,1,43.64,56.37Z"/><path class="cls-7" d="M43,55.7l.14,0V57L43,57a.67.67,0,0,1-.57-.34V56A.67.67,0,0,1,43,55.7Z"/><path class="cls-7" d="M43.6,49.16h-.11a.66.66,0,1,1,.43,1.17.62.62,0,0,1-.31-.08V50h-.24a.76.76,0,0,1-.1-.37.62.62,0,0,1,0-.23h.31Z"/><path class="cls-7" d="M43.49,49.16h.11v.26H43.3A.66.66,0,0,1,43.49,49.16Z"/><path class="cls-7" d="M43.61,50.25a.76.76,0,0,1-.25-.22h.24Z"/><path class="cls-7" d="M48.63,51.08a3.54,3.54,0,1,0,3.54,3.53A3.53,3.53,0,0,0,48.63,51.08Zm0,1.1a2.45,2.45,0,1,1-2.45,2.44A2.45,2.45,0,0,1,48.64,52.18Z"/><polygon class="cls-7" points="23.36 60.86 23.36 48.26 35.97 48.26 35.97 50.23 35.37 50.72 35.47 51.09 35.97 50.68 35.97 53.35 35.26 54.01 35.26 48.96 24.06 48.96 24.06 60.16 35.26 60.16 35.26 57.24 35.97 58 35.97 60.86 23.36 60.86"/><path class="cls-7" d="M35.3,56.78a.59.59,0,0,0,0-.23v-2.5l.16.17.55-.51v.66l-.51.45.17.2.34-.29v2.88l-.68-.73A.34.34,0,0,0,35.3,56.78Z"/><polygon class="cls-7" points="35.37 50.72 35.97 50.23 35.97 50.68 35.47 51.09 35.37 50.72"/><polygon class="cls-7" points="35.42 54.22 35.26 54.05 35.26 54.01 35.97 53.35 35.97 53.71 35.42 54.22"/><polygon class="cls-7" points="35.46 54.82 35.97 54.37 35.97 54.73 35.63 55.02 35.46 54.82"/><path class="cls-7" d="M35.26,57a.27.27,0,0,0,0-.12l.68.73V58l-.71-.76Z"/><path class="cls-7" d="M35.09,56.66l-.19.18.29.31a.69.69,0,0,1-.55.29.66.66,0,1,1,0-1.32.65.65,0,0,1,.62.43v.3Z"/><path class="cls-7" d="M34.9,56.84l.19-.18.17.19V57a.52.52,0,0,1-.07.15Z"/><path class="cls-7" d="M35.26,56.55a.59.59,0,0,1,0,.23.34.34,0,0,1,0,.1l0,0Z"/><path class="cls-7" d="M35.29,56.88a.27.27,0,0,1,0,.12v-.15Z"/><path class="cls-7" d="M32.86,54.61a3.54,3.54,0,1,0-3.54,3.54A3.54,3.54,0,0,0,32.86,54.61Zm-1,0a2.45,2.45,0,1,1-2.45-2.44A2.45,2.45,0,0,1,31.85,54.62Z"/><polygon class="cls-7" points="1.69 16.37 3.03 16.39 3.03 16.53 1.69 16.53 1.69 16.37"/><polygon class="cls-7" points="14.92 16.48 14.92 16.1 16.26 15.81 16.26 15.87 15.89 16.47 14.92 16.48"/><path class="cls-7" d="M5.54,61.54l6.81-.06c.77.29.71,1.47.68,1.81H4.81C4.79,61.64,5.54,61.54,5.54,61.54Z"/><path class="cls-7" d="M4.93,63.86l6,0C8.78,64.27,5.57,64.73,4.93,63.86Z"/><path class="cls-7" d="M4.81,63.29H13a.31.31,0,0,1,0,.09s-.88.23-2.06.46l-6,0a.55.55,0,0,1-.11-.31A2.35,2.35,0,0,1,4.81,63.29Z"/><polygon class="cls-7" points="12.08 42.45 5.93 42.44 5.93 41.09 12.08 41.11 12.08 42.45"/><rect class="cls-7" x="5.42" y="41.09" width="0.52" height="1.34"/><path class="cls-7" d="M25.33,11.89l-.2,0-7.9-.08-2.09,3.35L-.08,15.2c-1,0-1.28.25-1.36.34l-.21.2,0,.13-.15,48.76H19.83l.08-19.74,7.51-.15v-29C27.43,13.25,26.2,12.18,25.33,11.89Zm1.05,31.82h-.29V33.37h0V43.43l-6.22.12v.16h-1.3L18.5,63.29H15.56v.33h-.22v-.33H13a.31.31,0,0,1,0,.09s-.88.23-2.06.46c-2.18.43-5.39.89-6,0a.55.55,0,0,1-.11-.31,2.35,2.35,0,0,1,0-.26H-.48l.14-46.74h2v-.16l1.34,0v.14l11.89-.05V16.1l1.34-.29v.06L18,13.13l7,.07a2.53,2.53,0,0,1,1.1,2.43V32.18h.29Z"/><path class="cls-7" d="M4.6,36.42v8.32h8.82V36h-.05a8.92,8.92,0,0,0,2.94-5.28l0-14.88-.37.6h-1l0,9A7.15,7.15,0,0,0,8.89,22a7.14,7.14,0,0,0-6,3.3L3,16.53H1.69l-.17,14.3A8.24,8.24,0,0,0,4.6,36.42Zm1-.17h.34v.17Zm3,1.34h.17a7.79,7.79,0,0,0,3.29-.74v2.3H5.93v-2A7.49,7.49,0,0,0,8.62,37.59Zm3.46,5.81H5.93v-1H5.42V41.09h.51v-.61h6.15V43.4Zm-9.18-16a6.38,6.38,0,0,1,6-4.54A6.38,6.38,0,0,1,15,27.71a7.28,7.28,0,0,1,.25,1.83A6.8,6.8,0,0,1,13,34.59a6.11,6.11,0,0,1-4.11,1.6,6.28,6.28,0,0,1-5.46-3.31,6.94,6.94,0,0,1-.86-3.34A7.07,7.07,0,0,1,2.9,27.42Z"/><path class="cls-7" d="M5.93,36.42l-.34-.17h.34Z"/><path class="cls-7" d="M8.1,27,7.25,24.2a3.93,3.93,0,0,1,3.27-.1L9.62,27Z"/><path class="cls-7" d="M9.67,32.2,10.52,35a3.93,3.93,0,0,1-3.27.1l.9-2.87Z"/><path class="cls-7" d="M14.08,27.94a3.93,3.93,0,0,1,.1,3.27l-2.87-.9,0-1.52Z"/><path class="cls-7" d="M6.33,30.36l-2.75.85a3.93,3.93,0,0,1-.1-3.27l2.87.9Z"/><path class="cls-7" d="M8.84,27.63a2,2,0,1,1-2,2A2,2,0,0,1,8.84,27.63Z"/><path class="cls-7" d="M24.67,21.69l-1-1,.13-.18h0L24.9,21.6l0,10.58h-.22Z"/><path class="cls-7" d="M21.81,21.93l.25-.07,2.06,2.08,0,8.24h-.22l0-8.14Z"/><path class="cls-7" d="M21,22h0l.27,0,2.2,2.27,0,7.9H23.3l0-7.81Z"/><path class="cls-7" d="M22.92,24.5v7.68H22.7V24.59L20,21.87a2.73,2.73,0,0,0,.41.1Z"/><path class="cls-7" d="M17.7,34.74c0-.46.62-.49.87-.48v.93C18.28,35.21,17.69,35.19,17.7,34.74Z"/><path class="cls-7" d="M17.7,36.57c0-.46.62-.49.87-.48V37C18.28,37,17.69,37,17.7,36.57Z"/><path class="cls-7" d="M17.7,38.35c0-.47.62-.5.87-.49v.93C18.28,38.81,17.69,38.79,17.7,38.35Z"/><path class="cls-7" d="M17.71,40.19h.17V40h-.14c.15-.29.62-.3.83-.3v.93C18.29,40.61,17.74,40.59,17.71,40.19Z"/><path class="cls-7" d="M17.72,42h.11v-.22h-.1c.11-.34.62-.37.84-.36v.93C18.31,42.41,17.8,42.39,17.72,42Z"/><path class="cls-7" d="M17.71,40.19H14.87v8.09h0v-.44h-.22V40h3.1a.58.58,0,0,0,0,.19S17.71,40.17,17.71,40.19Z"/><path class="cls-7" d="M17.88,40.19h-.17s0,0,0,0a.58.58,0,0,1,0-.19h.14Z"/><path class="cls-7" d="M15.33,41.82h2.4a.5.5,0,0,0,0,.13.29.29,0,0,0,0,.09H15.55V63.29h-.22V41.82Z"/><rect class="cls-7" x="15.34" y="63.29" width="0.22" height="0.33"/><path class="cls-7" d="M17.83,42h-.11a.29.29,0,0,1,0-.09.5.5,0,0,1,0-.13h.1Z"/><path class="cls-7" d="M14.64,48.28v-.44h-12V60.27H14.86v-12Zm-.23,11.55H3.06V48.29H7.37v-.23h.28v.23h.86v-.23h.28v.23h.92v-.23H10v.23h4.42Z"/><rect class="cls-7" x="14.64" y="47.84" width="0.21" height="0.44"/><path class="cls-7" d="M23.63,20.68l.15-.15A3.3,3.3,0,1,0,20,21.87l-.4-.41.16-.15.65.66A2.59,2.59,0,0,0,21,22l-.26-.26.16-.15.4.4a3.08,3.08,0,0,0,.53-.08l-.3-.32.15-.15.4.4a3.35,3.35,0,0,0,1.59-1.15Zm-.35-1.88A2.28,2.28,0,1,1,21,16.52,2.28,2.28,0,0,1,23.28,18.8Z"/><path class="cls-7" d="M23.63,20.68l.15-.15-.13.18Z"/><path class="cls-7" d="M21.51,21.61l.15-.15.4.4-.25.07Z"/><path class="cls-7" d="M21,22l-.26-.26.16-.15.4.4L21,22Z"/><path class="cls-7" d="M19.77,21.31l.65.66a2.73,2.73,0,0,1-.41-.1l-.4-.41Z"/><path class="cls-7" d="M18.57,42.39h.15l0-.91h-.11v-.87h.15l0-.91h-.11v-.87h.15l0-.91h-.11V37h.15l0-.91h-.11v-.9h.15l0-.91h-.11V32.18H22.7v.18h.22v-.18h.38v0h.22v0h.41v.15h.22v-.15h.56v.18h.22v-.18h1.16v1.19H19.87V43.55l-1.3,0v.13h0Z"/><polygon class="cls-7" points="26.38 32.18 26.38 43.71 26.09 43.71 26.09 33.37 26.09 33.37 26.09 32.18 26.38 32.18"/><polygon class="cls-7" points="19.87 43.55 19.87 43.71 18.57 43.71 18.57 43.58 19.87 43.55"/><polygon class="cls-7" points="24.71 32.36 24.71 32.18 24.93 32.18 24.93 32.36 24.71 32.36"/><rect class="cls-7" x="23.93" y="32.18" width="0.22" height="0.15" transform="translate(-0.21 0.16) rotate(-0.37)"/><rect class="cls-7" x="23.3" y="32.18" width="0.22" height="0.04" transform="translate(-0.42 0.31) rotate(-0.75)"/><rect class="cls-7" x="22.7" y="32.18" width="0.22" height="0.19"/><path class="cls-7" d="M18.72,35.18h-.15v-.93h.11Z"/><path class="cls-7" d="M18.72,37h-.15v-.93h.11Z"/><path class="cls-7" d="M18.72,38.78h-.15v-.93h.11Z"/><path class="cls-7" d="M18.72,40.58h-.15v-.93h.11Z"/><path class="cls-7" d="M18.72,42.38h-.15v-.93h.11Z"/><path class="cls-7" d="M7.37,49.76v-.22H4.26v8.93h9V49.54H10v.22H9.71v-.22H8.79v.22H8.51v-.22H7.65v.22ZM5.6,50.88H12v6.25H5.6Z"/><rect class="cls-7" x="9.71" y="48.29" width="0.28" height="1.25"/><rect class="cls-7" x="9.71" y="48.06" width="0.28" height="0.23"/><rect class="cls-7" x="9.71" y="49.54" width="0.28" height="0.22"/><rect class="cls-7" x="7.37" y="48.29" width="0.28" height="1.25"/><rect class="cls-7" x="7.37" y="48.06" width="0.28" height="0.23"/><rect class="cls-7" x="7.37" y="49.54" width="0.28" height="0.22"/><rect class="cls-7" x="8.51" y="48.29" width="0.28" height="1.25"/><rect class="cls-7" x="8.51" y="48.06" width="0.28" height="0.23"/><rect class="cls-7" x="8.51" y="49.54" width="0.28" height="0.22"/><path class="cls-7" d="M21.55,24.7a.48.48,0,1,1-.49.48A.48.48,0,0,1,21.55,24.7Z"/><path class="cls-7" d="M21.55,28.83a.48.48,0,0,1,.48.48.49.49,0,1,1-1,0A.48.48,0,0,1,21.55,28.83Z"/><path class="cls-7" d="M21.55,30.43a.48.48,0,0,1,.48.48.49.49,0,1,1-1,0A.48.48,0,0,1,21.55,30.43Z"/><path class="cls-7" d="M17,53.46a.48.48,0,1,1,.48-.48A.48.48,0,0,1,17,53.46Z"/><path class="cls-7" d="M17,54.1a.48.48,0,1,1-.49.48A.48.48,0,0,1,17,54.1Z"/><path class="cls-7" d="M1,51.9a.49.49,0,1,1,.48-.48A.49.49,0,0,1,1,51.9Z"/><path class="cls-7" d="M1,53.5A.49.49,0,1,1,1.45,53,.49.49,0,0,1,1,53.5Z"/><path class="cls-7" d="M1,56.77a.48.48,0,1,1,.49-.48A.48.48,0,0,1,1,56.77Z"/></g><path class="cls-7" d="M17.43,63.94a7.47,7.47,0,0,1-3.76-1A14.49,14.49,0,0,1,10.21,60a39.92,39.92,0,0,1-9-16.64,35.24,35.24,0,0,1-1-5.19,30.62,30.62,0,0,1-.14-5.38,20.72,20.72,0,0,1,2.2-8.28,17,17,0,0,1,5-6,16.09,16.09,0,0,1,7.16-3,13.13,13.13,0,0,1,2.83-.16,12.78,12.78,0,0,1,3,.57c1,.31,2,.66,3,1l.34.12c1.07.37,2.08.72,3.13,1a2.53,2.53,0,0,0,1.46-.15l3.46-1.18,1.09-.37a22.46,22.46,0,0,1,3.85-1,13.3,13.3,0,0,1,3.73-.07,21.18,21.18,0,0,1,3.37.66,14.77,14.77,0,0,1,8.13,5.69l0,.07.37.56-.55.39-.47.32c-.34.23-.67.45-1,.68a12.63,12.63,0,0,0-4.1,4.91,12.27,12.27,0,0,0-1,3.88,14.37,14.37,0,0,0,.37,4.93,12.27,12.27,0,0,0,3.68,6,13.67,13.67,0,0,0,4,2.61l.15.07a.86.86,0,0,1,.24.23l.23.3-.13.35-.19.52c-.12.33-.24.67-.37,1a36.19,36.19,0,0,1-5.41,9.5A26.82,26.82,0,0,1,45.05,61a10.94,10.94,0,0,1-3,2.09,8,8,0,0,1-4.76.67,18.61,18.61,0,0,1-4.13-1.24,15,15,0,0,0-3.87-1,11.12,11.12,0,0,0-1.16-.06,12.78,12.78,0,0,0-2.6.29,20.71,20.71,0,0,0-3.34,1.09,19.19,19.19,0,0,1-3.44,1A7.81,7.81,0,0,1,17.43,63.94Zm-.77-47.27a12.93,12.93,0,0,0-2,.17,14.71,14.71,0,0,0-6.55,2.75,15.44,15.44,0,0,0-4.62,5.53,19.28,19.28,0,0,0-2.05,7.73A28.74,28.74,0,0,0,1.57,38a35.38,35.38,0,0,0,1,5,38.69,38.69,0,0,0,8.7,16.07,13.24,13.24,0,0,0,3.14,2.64,6,6,0,0,0,3.06.86,6.11,6.11,0,0,0,1.11-.1,17.09,17.09,0,0,0,3.17-.93,22.12,22.12,0,0,1,3.56-1.15,13.53,13.53,0,0,1,2.89-.32,11.43,11.43,0,0,1,1.32.07,16.17,16.17,0,0,1,4.23,1.11,18.13,18.13,0,0,0,3.83,1.16,6.7,6.7,0,0,0,4-.56A9.84,9.84,0,0,0,44.1,60a25.23,25.23,0,0,0,2.52-2.91A34.49,34.49,0,0,0,51.84,48c.11-.31.22-.62.34-.93a15.32,15.32,0,0,1-3.88-2.66,13.82,13.82,0,0,1-4.08-6.7,15.77,15.77,0,0,1-.41-5.39A13.64,13.64,0,0,1,45,27.94a13.85,13.85,0,0,1,4.52-5.45c.3-.22.61-.42.91-.63a13.43,13.43,0,0,0-7-4.64,20.43,20.43,0,0,0-3.15-.62,12.52,12.52,0,0,0-3.35.06,21.77,21.77,0,0,0-3.61.92L32.17,18l-3.48,1.18a4.41,4.41,0,0,1-1.46.27,3.22,3.22,0,0,1-.76-.09c-1.12-.27-2.2-.65-3.25-1l-.35-.12c-1-.34-2-.69-2.95-1a11.53,11.53,0,0,0-2.73-.52Z"/><path class="cls-7" d="M101.52,53.44V22.2h-.09L87.85,53.36H86L72.41,22.2h-.1V53.44H70.46V18.19h2.15L86.85,50.92H87l14.19-32.73h2.2V53.44Z"/><path class="cls-7" d="M108.61,46.35c0-4.49,3.22-7.06,9.4-7.52l9-.66V35.83c0-4.59-2.78-7.31-7.52-7.31-4.47,0-7.42,2.28-8.06,6.26h-1.83c.46-4.86,4.37-8,9.92-8,5.76,0,9.37,3.42,9.37,8.91V53.44h-1.83V47.77h0c-1.29,3.57-5.22,6-9.69,6C112.17,53.78,108.61,50.75,108.61,46.35ZM127,43.69V39.76l-8.77.66c-5,.36-7.74,2.42-7.74,5.93,0,3.35,3,5.74,7.06,5.74C122.82,52.09,127,48.36,127,43.69Z"/><path class="cls-7" d="M153.45,35.05c-.76-3.77-4-6.53-8.62-6.53-5.91,0-9.67,4.6-9.67,11.78s3.76,11.77,9.69,11.77c4.5,0,7.79-2.54,8.58-6.33h1.9c-.81,4.74-4.91,8-10.48,8-7.06,0-11.6-5.2-11.6-13.48s4.54-13.51,11.58-13.51c5.64,0,9.72,3.61,10.5,8.26Z"/><path class="cls-7" d="M174.55,54c-9.18,0-15.43-7.4-15.43-18.34s6.15-17.93,15.43-17.93c7.09,0,12.68,4.27,14,10.67h-2c-1.39-5.39-6.08-8.86-12-8.86-8.16,0-13.46,6.35-13.46,16.09,0,9.92,5.43,16.56,13.46,16.56,7.57,0,12.29-4.76,12.29-12.36v-2H174.55V36h14.22v3.49C188.77,48.48,183.39,54,174.55,54Z"/><path class="cls-7" d="M192.41,46.35c0-4.49,3.22-7.06,9.4-7.52l9-.66V35.83c0-4.59-2.78-7.31-7.52-7.31-4.47,0-7.43,2.28-8.06,6.26h-1.83c.46-4.86,4.37-8,9.91-8,5.77,0,9.38,3.42,9.38,8.91V53.44h-1.83V47.77h-.05c-1.29,3.57-5.22,6-9.69,6C196,53.78,192.41,50.75,192.41,46.35Zm18.41-2.66V39.76l-8.77.66c-5,.36-7.74,2.42-7.74,5.93,0,3.35,3,5.74,7.06,5.74C206.62,52.09,210.82,48.36,210.82,43.69Z"/><path class="cls-7" d="M218.37,27.13h1.78v5.2h.08c1.05-3.59,3.54-5.54,7.05-5.54a7.06,7.06,0,0,1,2.45.44v1.9A6.53,6.53,0,0,0,227,28.6c-4.13,0-6.72,3.54-6.72,8.5V53.44h-1.9Z"/><path class="cls-7" d="M231,46.35c0-4.49,3.22-7.06,9.4-7.52l9-.66V35.83c0-4.59-2.79-7.31-7.53-7.31-4.47,0-7.42,2.28-8.06,6.26H232c.47-4.86,4.37-8,9.92-8,5.76,0,9.38,3.42,9.38,8.91V53.44h-1.83V47.77h-.05c-1.3,3.57-5.23,6-9.7,6C234.59,53.78,231,50.75,231,46.35Zm18.42-2.66V39.76l-8.77.66c-5,.36-7.74,2.42-7.74,5.93,0,3.35,2.95,5.74,7,5.74C245.24,52.09,249.44,48.36,249.44,43.69Z"/><path class="cls-7" d="M257.18,56.22h1.95c.88,2.83,4,5,8.5,5,5.5,0,9-3.2,9-8V46.43h-.05a10.05,10.05,0,0,1-9.77,7.3c-6.62,0-11.11-5.45-11.11-13.46s4.51-13.48,11.13-13.48a10.17,10.17,0,0,1,9.84,7.38h.08v-7h1.78v26c0,5.89-4.25,9.8-11,9.8C261.89,62.94,257.91,59.93,257.18,56.22ZM276.6,40.27c0-6.93-3.94-11.75-9.6-11.75s-9.41,4.77-9.41,11.75S261.4,52,267,52,276.6,47.18,276.6,40.27Z"/><path class="cls-7" d="M305.44,46.08c-.85,4.45-4.91,7.7-10.72,7.7-7.13,0-11.72-5-11.72-13.46,0-8.16,4.59-13.53,11.52-13.53s11.24,5.06,11.24,12.7v1.1H284.93v.1c0,7.18,3.9,11.38,9.81,11.38,4.81,0,8-2.54,8.77-6ZM285,39h18.88c0-6.23-3.79-10.48-9.33-10.48S285.24,32.7,285,39Z"/></g></svg>