<svg id="Layer_1" data-name="Layer 1" xmlns="http://www.w3.org/2000/svg" xmlns:xlink="http://www.w3.org/1999/xlink" viewBox="0 0 305.76 64"><defs><style>.cls-1{fill:none;clip-rule:evenodd;}.cls-2{clip-path:url(#clip-path);}.cls-3{fill:#f9f9f9;}</style><clipPath id="clip-path"><path class="cls-1" d="M-367,23.29s.56,6.13-2.44,6.13-3.52-2.91-3.79-4.75a52.75,52.75,0,0,1-.28-8.52,3.26,3.26,0,0,1,2.95-2.88,3.22,3.22,0,0,1,3,3c.19,1.72.34,3.1.34,3.1l2.55,0-.08-3s-.08-3.73,3.05-3.73c2.18,0,3.25,1.46,3.25,5s.28,8.64-.62,10.2a2.67,2.67,0,0,1-2.57,1.39c-.28,0-2.28-.31-2.66-2.94a12.53,12.53,0,0,1-.29-3Zm17.51-.47c.08-.24-.44-3.35-1.61-3.35-.79,0-1.88,3.17-1.49,3.3S-349.59,23.06-349.51,22.82Zm6,2.35c.41,1.34.55,3.5-2.05,4.17s-2.71-3-3.6-2.75a7.18,7.18,0,0,1-2.11.27c-1.21-.05-2.44-.33-2.61-.06-.63.91-1.47,2.83-2.89,2.54a4,4,0,0,1-1.67-.71c.6-1.37.74-3.5.74-6.56a72.22,72.22,0,0,1,3.47-6.74c1.43-2.34,2.12-2.75,3.35-2.75,1.42,0,3,1.79,4,4.25S-343.93,23.83-343.52,25.17Zm-15.8,5.94c1.69,0,2.52,1.16,2.52,4s.22,6.91-.48,8.16a2.1,2.1,0,0,1-2,1.12,2.41,2.41,0,0,1-2.07-2.35,10.2,10.2,0,0,1-.22-2.39l-1.86,0s.44,4.9-1.9,4.9-2.73-2.33-2.95-3.8a44.1,44.1,0,0,1-.21-6.82,2.56,2.56,0,0,1,2.29-2.3,2.54,2.54,0,0,1,2.32,2.4c.14,1.37.26,2.48.26,2.48l2,0-.07-2.43S-361.76,31.11-359.32,31.11Zm11.56,3.39c.78,2,2.29,5.6,2.61,6.68s.42,2.8-1.6,3.33-2.11-2.41-2.79-2.2a5.3,5.3,0,0,1-1.65.22c-.94,0-1.9-.26-2-.05-.49.73-1.14,2.27-2.25,2a2.88,2.88,0,0,1-1.29-.56,15.05,15.05,0,0,0,.57-5.25,58.11,58.11,0,0,1,2.7-5.39c1.11-1.87,1.65-2.2,2.6-2.2C-349.78,31.11-348.54,32.54-347.76,34.5Zm-2.05,4.8a6.61,6.61,0,0,1-2.42,0c-.3-.11.55-2.64,1.16-2.64.92,0,1.32,2.48,1.26,2.68"/></clipPath></defs><title>mg</title><g id="logo-lyrics"><polygon class="cls-3" points="12.62 45.32 12.63 4.89 0.08 4.89 0.07 45.32 0.07 45.32 0 59.05 38.74 59.05 38.74 45.32 12.62 45.32"/><polygon class="cls-3" points="54.35 4.89 15.61 4.89 15.61 18.67 41.77 18.67 41.77 59.06 54.33 59.06 54.35 18.67 54.35 18.67 54.35 4.89"/><rect class="cls-3" x="15.61" y="21.5" width="6.28" height="20.87"/><rect class="cls-3" x="24.1" y="21.5" width="6.29" height="20.87"/><rect class="cls-3" x="32.6" y="21.5" width="6.28" height="20.87"/><path class="cls-3" d="M64.38,4.86H82.27v40h15.1V59.05h-33Z"/><path class="cls-3" d="M105.65,35.74,88.83,4.86h17.4l8.12,15,8.14-15h17.29L123,35.74V59.05H105.65Z"/><path class="cls-3" d="M143.43,4.86h18.69a32,32,0,0,1,9.63,1.39,22.25,22.25,0,0,1,7.67,4.06,18.5,18.5,0,0,1,5.08,6.62A21.31,21.31,0,0,1,186.33,26a18.52,18.52,0,0,1-1.14,6.9,21.32,21.32,0,0,1-2.52,4.72A17.35,17.35,0,0,1,179,41.18l10.15,17.87H168.86l-8.12-13.73V59.05H143.43Zm17.31,26.65h.89a9.52,9.52,0,0,0,5.24-1.38c1.44-.92,2.15-2.46,2.15-4.63s-.71-3.71-2.15-4.63a9.52,9.52,0,0,0-5.24-1.38h-.89Z"/><path class="cls-3" d="M193.23,4.86H211.6V59.05H193.23Z"/><path class="cls-3" d="M218.5,32a29.13,29.13,0,0,1,2.28-11.74,27.29,27.29,0,0,1,6.17-9,26.94,26.94,0,0,1,9.1-5.73,30.81,30.81,0,0,1,11-2,34.28,34.28,0,0,1,8.25.9,38.05,38.05,0,0,1,6.21,2,29.31,29.31,0,0,1,5.2,2.84l-8.53,15a31,31,0,0,0-2.84-1.87,28.65,28.65,0,0,0-3.29-1.26,14.57,14.57,0,0,0-4.35-.6,11.69,11.69,0,0,0-4.63.89,12,12,0,0,0-3.7,2.44,11.34,11.34,0,0,0-2.48,3.61,11.16,11.16,0,0,0-.89,4.43,10.7,10.7,0,0,0,.93,4.43A11.46,11.46,0,0,0,239.54,40a12.12,12.12,0,0,0,3.82,2.44,12.51,12.51,0,0,0,4.8.89,15,15,0,0,0,4.63-.65,16.93,16.93,0,0,0,3.41-1.46A12.42,12.42,0,0,0,259,39.15l8.53,15a24,24,0,0,1-5.2,3.17,43.61,43.61,0,0,1-6.25,2.11,32.6,32.6,0,0,1-8.37,1,32,32,0,0,1-11.7-2.08,27.61,27.61,0,0,1-9.26-5.8,26.62,26.62,0,0,1-6.1-9A29.79,29.79,0,0,1,218.5,32Z"/><path class="cls-3" d="M271.39,42.24a25.85,25.85,0,0,0,3.74.89,29,29,0,0,0,3.7.65A36.22,36.22,0,0,0,283,44q3.74,0,3.74-2.76a3.09,3.09,0,0,0-1.14-2.15,36.63,36.63,0,0,0-2.88-2.44q-1.75-1.34-3.74-3A27.53,27.53,0,0,1,275.25,30a19.43,19.43,0,0,1-2.88-4.75,15.16,15.16,0,0,1-1.14-6.06,15.64,15.64,0,0,1,1.38-6.74,13.48,13.48,0,0,1,3.82-4.87,17.13,17.13,0,0,1,5.73-3,23.55,23.55,0,0,1,7-1,36.4,36.4,0,0,1,3.9.21l3.5.36,3.49.49V19.81l-1.46-.16-1.46-.16a15.69,15.69,0,0,0-1.71-.08c-.32,0-.73,0-1.22,0a7.4,7.4,0,0,0-1.38.2,2.92,2.92,0,0,0-1.14.57,1.41,1.41,0,0,0-.48,1.14c0,.43.36,1,1.09,1.62s1.63,1.41,2.68,2.28,2.22,1.87,3.5,3a24.75,24.75,0,0,1,3.49,3.9,22.57,22.57,0,0,1,2.68,5,16.62,16.62,0,0,1,1.1,6.17A19.46,19.46,0,0,1,304.62,50a14.34,14.34,0,0,1-3.53,5.44A17.09,17.09,0,0,1,295,59.1a26.32,26.32,0,0,1-8.85,1.34,53.51,53.51,0,0,1-5.73-.29c-1.76-.19-3.32-.42-4.67-.69a39,39,0,0,1-4.31-1Z"/></g></svg>