<svg id="Layer_1" data-name="Layer 1" xmlns="http://www.w3.org/2000/svg" viewBox="0 0 64 64"><defs><style>.cls-1{fill:#f9f9f9;}</style></defs><title>mg</title><path class="cls-1" d="M63.23,34.85v-6.7L56.71,12.54H41.36a1.86,1.86,0,0,0-1.79,1.85v21H35.38v-16a3,3,0,0,0-3-3H2.72A1.85,1.85,0,0,0,.87,18.18V38.8a.87.87,0,0,0-.87.87V42a.87.87,0,0,0,.87.87v2.25H9a6.33,6.33,0,0,0,12.66,0H44a6.34,6.34,0,0,0,12.67,0h6.52V41.27A1.44,1.44,0,0,0,64,40V36.11A1.42,1.42,0,0,0,63.23,34.85ZM15.36,48.19a3.06,3.06,0,1,1,3.05-3.06A3.06,3.06,0,0,1,15.36,48.19Zm35,0a3.06,3.06,0,1,1,3-3.06A3.06,3.06,0,0,1,50.38,48.19Zm8.51-19.56H45.67A1.73,1.73,0,0,1,44,26.9v-10a1.73,1.73,0,0,1,1.72-1.73h7.59a2.81,2.81,0,0,1,2.39,1.6L60,27A1.07,1.07,0,0,1,58.89,28.63Z"/></svg>