<svg id="Layer_1" data-name="Layer 1" xmlns="http://www.w3.org/2000/svg" viewBox="0 0 64 64"><defs><style>.cls-1{fill:#f9f9f9;}</style></defs><title>mg</title><path class="cls-1" d="M51.12,27.78A10.88,10.88,0,0,0,50,49.47,14.3,14.3,0,0,1,21.9,45.59s0-4.54,0-7.87A18.56,18.56,0,0,0,39.22,19.11v-6H38c-.16-4.35-1.49-8-4.62-9.55a3.84,3.84,0,0,0-7.67.32A3.84,3.84,0,0,0,32.82,6c2,1.27,2.72,4,2.82,7.16h-.76v.25c0,.07,0,5.68,0,5.73A14.2,14.2,0,0,1,20.8,33.37,14.19,14.19,0,0,1,6.72,19.11c0-.05,0-5.66,0-5.73v-.25H6c.12-3.13.82-5.76,2.81-7a3.79,3.79,0,0,0,3.16,1.66,3.88,3.88,0,0,0,0-7.76A3.85,3.85,0,0,0,8.1,3.77c-3,1.56-4.32,5.11-4.5,9.36H2.38v6A18.6,18.6,0,0,0,18.05,37.54v8.05a18.17,18.17,0,0,0,36,3.52,10.9,10.9,0,0,0-3-21.33Z"/></svg>