<svg id="Layer_1" data-name="Layer 1" xmlns="http://www.w3.org/2000/svg" viewBox="0 0 64 64"><defs><style>.cls-1{fill:#f9f9f9;}</style></defs><title>mg</title><path class="cls-1" d="M59.88,26.32a13.43,13.43,0,0,1-14.67,2.9l-7.07,7.46,21,19.21A1.47,1.47,0,0,1,59.42,58L53.8,63.62a1.48,1.48,0,0,1-2.11-.24L32.63,42.49,15.14,61l-.05-.06a6.24,6.24,0,0,1-8.82-8.82h0L6.37,52l.08-.07.27-.24L25.09,34.22l-6.21-6.81a14.36,14.36,0,0,0-6.77-2.85s-7.6-.44-8.18,11.18c0,.25-.18.28-.37.09L1.28,33.57a2.25,2.25,0,0,1-.5-.83,15.77,15.77,0,0,1,4-15.55l7.84-7.85a2.56,2.56,0,0,1,.32-.27,1.66,1.66,0,0,0,.5.07,3.79,3.79,0,0,0,3.91-4,1.14,1.14,0,0,1,.24-.76L21.83.11a.46.46,0,0,1,.65.06l6.73,6.72a.48.48,0,0,1,.06.67S26.87,10,26,10.8l-.58.6-.44.43a1.11,1.11,0,0,1-.76.25,3.74,3.74,0,0,0-2.9,1.1,3.84,3.84,0,0,0-1.09,3.29,14.23,14.23,0,0,0,2.46,6.16l7.45,6.78L38,22A13.42,13.42,0,0,1,56.11,4.69l-6,6h0l-1.18,4.37,3.21,3.2,4.37-1.17h0l6-6A13.47,13.47,0,0,1,59.88,26.32Z"/></svg>