<svg id="Layer_1" data-name="Layer 1" xmlns="http://www.w3.org/2000/svg" xmlns:xlink="http://www.w3.org/1999/xlink" viewBox="0 0 64 64"><defs><style>.cls-1,.cls-2{fill:none;}.cls-1{clip-rule:evenodd;}.cls-3{clip-path:url(#clip-path);}.cls-4{clip-path:url(#clip-path-2);}.cls-5{clip-path:url(#clip-path-3);}.cls-6{clip-path:url(#clip-path-4);}.cls-7{fill:#2191ff;}.cls-8{clip-path:url(#clip-path-5);}.cls-9{clip-path:url(#clip-path-6);}.cls-10{fill:#fff;}</style><clipPath id="clip-path"><path class="cls-1" d="M-29.9,63.15a4.21,4.21,0,0,1-4.2-4.21,4.2,4.2,0,0,1,4.2-4.21,4.2,4.2,0,0,1,4.21,4.21A4.21,4.21,0,0,1-29.9,63.15ZM-48.15,52.79a27.74,27.74,0,0,1-13.74,3.62A27.78,27.78,0,0,1-89.67,28.63,27.78,27.78,0,0,1-61.89.85,27.79,27.79,0,0,1-34.1,28.63a27.65,27.65,0,0,1-3.63,13.74,7.59,7.59,0,0,1,3.63,6.47,7.58,7.58,0,0,1-7.58,7.57A7.58,7.58,0,0,1-48.15,52.79Z"/></clipPath><clipPath id="clip-path-2"><path class="cls-1" d="M-61.89,40.84c24-15.82,7.83-29.08,0-20.41C-69.71,11.76-85.89,25-61.89,40.84Z"/></clipPath><clipPath id="clip-path-3"><path class="cls-1" d="M0,58.9a4.21,4.21,0,1,1,4.21,4.21A4.22,4.22,0,0,1,0,58.9Zm16-2.53a7.58,7.58,0,0,1-3.95-14A27.78,27.78,0,1,1,22.47,52.74,7.56,7.56,0,0,1,16,56.37Z"/></clipPath><clipPath id="clip-path-4"><rect class="cls-2" x="-328.42" y="-676.26" width="631.58" height="1367.58"/></clipPath><clipPath id="clip-path-5"><path class="cls-1" d="M28.48,23.29S29,29.42,26,29.42s-3.52-2.91-3.79-4.75A52.75,52.75,0,0,1,22,16.15a3.26,3.26,0,0,1,3-2.88,3.22,3.22,0,0,1,3,3c.19,1.72.34,3.1.34,3.1l2.55,0-.08-3s-.08-3.73,3-3.73c2.18,0,3.25,1.46,3.25,5s.28,8.64-.62,10.2a2.67,2.67,0,0,1-2.57,1.39c-.28,0-2.28-.31-2.66-2.94a12.53,12.53,0,0,1-.29-3ZM46,22.82c.08-.24-.44-3.35-1.61-3.35-.79,0-1.88,3.17-1.49,3.3S45.91,23.06,46,22.82Zm6,2.35c.41,1.34.55,3.5-2,4.17s-2.71-3-3.6-2.75a7.18,7.18,0,0,1-2.11.27c-1.21-.05-2.44-.33-2.61-.06-.63.91-1.47,2.83-2.89,2.54a4,4,0,0,1-1.67-.71c.6-1.37.74-3.5.74-6.56a72.22,72.22,0,0,1,3.47-6.74c1.43-2.34,2.12-2.75,3.35-2.75,1.42,0,3,1.79,4,4.25S51.57,23.83,52,25.17Zm-15.8,5.94c1.69,0,2.52,1.16,2.52,4s.22,6.91-.48,8.16a2.1,2.1,0,0,1-2,1.12,2.41,2.41,0,0,1-2.07-2.35,10.2,10.2,0,0,1-.22-2.39l-1.86,0s.44,4.9-1.9,4.9-2.73-2.33-3-3.8A44.1,44.1,0,0,1,27,34a2.56,2.56,0,0,1,2.29-2.3,2.54,2.54,0,0,1,2.32,2.4c.14,1.37.26,2.48.26,2.48l2,0-.07-2.43S33.74,31.11,36.18,31.11ZM47.74,34.5c.78,2,2.29,5.6,2.61,6.68s.42,2.8-1.6,3.33S46.64,42.1,46,42.31a5.3,5.3,0,0,1-1.65.22c-.94,0-1.9-.26-2-.05-.49.73-1.14,2.27-2.25,2A2.88,2.88,0,0,1,38.74,44a15.05,15.05,0,0,0,.57-5.25A58.11,58.11,0,0,1,42,33.31c1.11-1.87,1.65-2.2,2.6-2.2C45.72,31.11,47,32.54,47.74,34.5Zm-2.05,4.8a6.61,6.61,0,0,1-2.42,0c-.3-.11.55-2.64,1.16-2.64.92,0,1.32,2.48,1.26,2.68"/></clipPath><clipPath id="clip-path-6"><rect class="cls-2" x="-230.74" y="-677.95" width="631.58" height="1367.58"/></clipPath></defs><title>mg</title><g class="cls-5"><g class="cls-6"><rect class="cls-7" x="-8.42" y="-7.63" width="80.84" height="79.16"/></g></g><g class="cls-8"><g class="cls-9"><rect class="cls-10" x="13.47" y="4.16" width="47.16" height="48.84"/></g></g></svg>