<svg id="Layer_1" data-name="Layer 1" xmlns="http://www.w3.org/2000/svg" xmlns:xlink="http://www.w3.org/1999/xlink" viewBox="0 0 64 64"><defs><style>.cls-1,.cls-2{fill:none;}.cls-1{clip-rule:evenodd;}.cls-3{clip-path:url(#clip-path);}.cls-4{clip-path:url(#clip-path-2);}.cls-5{fill:#2191ff;}.cls-6{clip-path:url(#clip-path-3);}.cls-7{fill:#fa5f8f;}.cls-8{clip-path:url(#clip-path-5);}.cls-9{clip-path:url(#clip-path-6);}</style><clipPath id="clip-path"><path class="cls-1" d="M59.77,63.15A4.21,4.21,0,1,1,64,58.94,4.22,4.22,0,0,1,59.77,63.15ZM41.52,52.79A27.8,27.8,0,1,1,51.93,42.37,7.58,7.58,0,1,1,41.52,52.79Z"/></clipPath><clipPath id="clip-path-2"><rect class="cls-2" x="-287.91" y="-403.24" width="631.39" height="1367.16"/></clipPath><clipPath id="clip-path-3"><path class="cls-1" d="M27.78,40.84c24-15.82,7.83-29.08,0-20.41C20,11.76,3.78,25,27.78,40.84Z"/></clipPath><clipPath id="clip-path-5"><path class="cls-1" d="M89.67,58.9a4.21,4.21,0,1,1,4.21,4.21A4.21,4.21,0,0,1,89.67,58.9Zm16-2.53a7.58,7.58,0,0,1-4-14,27.78,27.78,0,1,1,10.42,10.42A7.58,7.58,0,0,1,105.67,56.37Z"/></clipPath><clipPath id="clip-path-6"><path class="cls-1" d="M118.15,23.29s.56,6.13-2.44,6.13-3.52-2.91-3.79-4.75a52.75,52.75,0,0,1-.28-8.52,3,3,0,0,1,5.93.12c.18,1.72.33,3.1.33,3.1l2.56,0-.08-3s-.09-3.73,3.05-3.73c2.18,0,3.25,1.46,3.25,5s.28,8.64-.63,10.2a2.67,2.67,0,0,1-2.57,1.39c-.27,0-2.27-.31-2.66-2.94a12.64,12.64,0,0,1-.28-3Zm17.5-.47c.09-.24-.43-3.35-1.61-3.35-.79,0-1.87,3.17-1.49,3.3S135.57,23.06,135.65,22.82Zm6,2.35c.41,1.34.54,3.5-2.05,4.17s-2.72-3-3.6-2.75a7.26,7.26,0,0,1-2.12.27c-1.2-.05-2.43-.33-2.61-.06-.62.91-1.46,2.83-2.88,2.54a4,4,0,0,1-1.67-.71c.59-1.37.73-3.5.74-6.56a72.22,72.22,0,0,1,3.47-6.74c1.42-2.34,2.12-2.75,3.35-2.75,1.42,0,3,1.79,4,4.25S141.24,23.83,141.65,25.17Zm-15.8,5.94c1.69,0,2.52,1.16,2.52,4s.22,6.91-.49,8.16a2.08,2.08,0,0,1-2,1.12c-.22,0-1.77-.26-2.07-2.35a11.13,11.13,0,0,1-.23-2.39l-1.85,0s.43,4.9-1.9,4.9-2.74-2.33-3-3.8a42.89,42.89,0,0,1-.21-6.82,2.31,2.31,0,1,1,4.61.1c.14,1.37.26,2.48.26,2.48l2,0-.06-2.43S123.41,31.11,125.85,31.11ZM137.4,34.5c.78,2,2.29,5.6,2.61,6.68s.43,2.8-1.59,3.33-2.11-2.41-2.8-2.2a5.18,5.18,0,0,1-1.64.22c-.94,0-1.9-.26-2-.05-.49.73-1.14,2.27-2.25,2a3,3,0,0,1-1.3-.56A14.76,14.76,0,0,0,129,38.7a55.71,55.71,0,0,1,2.7-5.39c1.1-1.87,1.64-2.2,2.6-2.2S136.62,32.54,137.4,34.5Zm-2.05,4.8a6.56,6.56,0,0,1-2.41,0c-.3-.11.54-2.64,1.16-2.64.91,0,1.32,2.48,1.25,2.68"/></clipPath></defs><title>mg</title><g class="cls-3"><g class="cls-4"><rect class="cls-5" x="-8.42" y="-7.57" width="80.82" height="79.13"/></g></g><g class="cls-6"><g class="cls-4"><rect class="cls-7" x="6.73" y="9.27" width="42.09" height="39.99"/></g></g></svg>