<svg id="Layer_1" data-name="Layer 1" xmlns="http://www.w3.org/2000/svg" viewBox="0 0 64 64"><defs><style>.cls-1{fill:#f9f9f9;}</style></defs><title>mg</title><path class="cls-1" d="M62.85,52.76a1.86,1.86,0,0,1-.42.05H1.6a1.84,1.84,0,0,1-.41-.05h0l19-19,4,4.13a10.9,10.9,0,0,0,15.67,0l4-4.13,19,19Zm1.18-2V13.13a1.61,1.61,0,0,0-.09-.54C63.84,12.8,45,32.18,45,32.18l19,19a1.93,1.93,0,0,0,.05-.42ZM0,50.89V13.29a1.4,1.4,0,0,1,.1-.54C.19,13,19,32.34,19,32.34l-19,19a1.93,1.93,0,0,1,0-.42ZM62.92,11.22,38.71,36a9.31,9.31,0,0,1-13.39,0L1.11,11.22c-.07-.07,61.81,0,61.81,0Z"/></svg>