<svg id="Layer_1" data-name="Layer 1" xmlns="http://www.w3.org/2000/svg" viewBox="0 0 64 64"><defs><style>.cls-1{fill:#f9f9f9;}</style></defs><title>mg</title><path id="Icon" class="cls-1" d="M5.13,25.85C1.42,19.11,0,13.68,0,10S.9,5.29,1.82,4.44s5-3.39,5.74-3.87a3.74,3.74,0,0,1,5.06,1c1.69,2.42,4.85,7.27,7,10.5,3.42,4.57.69,6.58-.19,7.78-1.62,2.21-2.56,2.76-2.56,5.48s7.6,10.44,9.41,12.34S35.69,46.22,38,46.57s5.52-2.14,6.19-2.77c3.42-2.63,5.35-.64,6.93.23s8.69,5.3,10.89,6.79a4.67,4.67,0,0,1,2,3.8s-4.28,6.8-4.8,7.61S57,64,53.49,64s-7.24-.64-16.13-5.53c-7.28-4-14.22-10.27-17.85-13.94A89,89,0,0,1,5.13,25.85Z"/></svg>