<svg id="Layer_1" data-name="Layer 1" xmlns="http://www.w3.org/2000/svg" viewBox="0 0 64 64"><defs><style>.cls-1{fill:#f9f9f9;}</style></defs><title>mg</title><path id="_Path_" data-name="&lt;Path&gt;" class="cls-1" d="M17,50.18q-1.53.42-3,.9C11.19,52,8.43,53,5.69,54a41,41,0,0,0,52.62.82c-3.63-1.63-8.75-3.29-8.75-3.29C43.47,50.39,41.63,49,41.63,49,39.67,48.16,40,40,40,40c3-.38,2.85-9.38,2.85-9.38,2.12,1.3,2.29-1.41,2.29-1.41a23,23,0,0,1,.67-2.93c2.06-6.34-1-4.82-1-4.82a32.1,32.1,0,0,0,1-11.49,8.87,8.87,0,0,0-3.9-6.38,11.88,11.88,0,0,0-2.48-1.28A38.24,38.24,0,0,0,35.8.91a18.4,18.4,0,0,0-3-.52A21.72,21.72,0,0,0,29.34.3,2,2,0,0,0,27.77,1a13,13,0,0,1-1.85.6c-.56.25-1.11.54-1.64.84a44.91,44.91,0,0,0-3.85,2.69c-1,.71-2.25,1.19-2.95,2.21a7.59,7.59,0,0,0-1.15,3,10.72,10.72,0,0,0-.12,3.83c.28,1.41.67,7.7.67,7.7-2.24-.44-1,2.76-1,2.76a19.08,19.08,0,0,1,1.06,3.85c.56,4.72,2.91,2.82,2.91,2.82C19.45,39.6,22.35,40,22.35,40a21.22,21.22,0,0,1-.55,7.7C21.09,49.53,18.66,49.74,17,50.18Z"/></svg>